# xmcd CD database file
#
# Track frame offsets:
#	150
#	23182
#	49247
#	69017
#	94150
#	114230
#	135087
#	160202
#	185345
#	206055
#	234320
#	258680
#	283612
#	317207
#
# Disc length: 4440 seconds
#
# Revision: 0
# Processed by: cddbd v1.5PL3 Copyright (c) Steve Scherf et al.
# Submitted via: CDex 1.50
#
DISCID=bc11560e
DTITLE=Various Artist - SLOW JAM -Sweet Ballade Collection-
DYEAR=2003
DGENRE=JPop
TTITLE0=飛び方を忘れた小さな鳥(STAR OCEAN VERSION)/MISIA
TTITLE1=ETERNITY/CALYN
TTITLE2=サルビアの涙/TIGER
TTITLE3=THE BEST OF TIME/MISIA
TTITLE4=FOR YOUR LOVE/CALYN
TTITLE5=A LOVE STORY/TIGER
TTITLE6=ALWAYS/MISIA
TTITLE7=SEA SONG/CALYN
TTITLE8=素敵な嘘なら/TIGER
TTITLE9=RAINY DAYS/CALYN
TTITLE10=眠れぬ夜は君のせい/MISIA
TTITLE11=POPLAR/CALYN
TTITLE12=INDIGO WALTZ(LIVE VERSION)/MISIA
TTITLE13=data
EXTD=YEAR: 2003
EXTT0=
EXTT1=
EXTT2=
EXTT3=
EXTT4=
EXTT5=
EXTT6=
EXTT7=
EXTT8=
EXTT9=
EXTT10=
EXTT11=
EXTT12=
EXTT13=
PLAYORDER=
